HIERARCHY
ROOT Hips
{
 OFFSET 0.000000 0.000000 0.000000
 CHANNELS 6 Xposition Yposition Zposition Yrotation Xrotation Zrotation
 JOINT Chest
 {
  OFFSET 0.000000 9.588913 -0.003946
  CHANNELS 3 Yrotation Xrotation Zrotation
  JOINT Chest2
  {
   OFFSET 0.000000 9.541882 0.008053
   CHANNELS 3 Yrotation Xrotation Zrotation
   JOINT Chest3
   {
    OFFSET 0.000000 9.501360 0.000000
    CHANNELS 3 Yrotation Xrotation Zrotation
    JOINT Chest4
    {
     OFFSET 0.000000 9.491660 0.000000
     CHANNELS 3 Yrotation Xrotation Zrotation
     JOINT Neck
     {
      OFFSET 0.000000 14.331917 0.000000
      CHANNELS 3 Yrotation Xrotation Zrotation
      JOINT Head
      {
       OFFSET 0.000000 8.884799 0.017034
       CHANNELS 3 Yrotation Xrotation Zrotation
       End Site
       {
        OFFSET 0.000000 16.896195 0.008993
       }
      }
     }
     JOINT RightCollar
     {
      OFFSET -2.923010 9.499495 0.000000
      CHANNELS 3 Yrotation Xrotation Zrotation
      JOINT RightShoulder
      {
       OFFSET -13.795216 0.000000 0.000000
       CHANNELS 3 Yrotation Xrotation Zrotation
       JOINT RightElbow
       {
        OFFSET -30.272209 0.000000 0.000000
        CHANNELS 3 Yrotation Xrotation Zrotation
        JOINT RightWrist
        {
         OFFSET -24.478199 0.000000 0.000000
         CHANNELS 3 Yrotation Xrotation Zrotation
         End Site
         {
          OFFSET -18.090752 0.000000 0.000000
         }
        }
       }
      }
     }
     JOINT LeftCollar
     {
      OFFSET 2.923010 9.499495 0.000000
      CHANNELS 3 Yrotation Xrotation Zrotation
      JOINT LeftShoulder
      {
       OFFSET 13.795216 0.000000 0.000000
       CHANNELS 3 Yrotation Xrotation Zrotation
       JOINT LeftElbow
       {
        OFFSET 30.272209 0.000000 0.000000
        CHANNELS 3 Yrotation Xrotation Zrotation
        JOINT LeftWrist
        {
         OFFSET 24.478199 0.000000 0.000000
         CHANNELS 3 Yrotation Xrotation Zrotation
         End Site
         {
          OFFSET 18.090752 0.000000 0.000000
         }
        }
       }
      }
     }
    }
   }
  }
 }
 JOINT RightHip
 {
  OFFSET -7.826875 0.019532 0.001973
  CHANNELS 3 Yrotation Xrotation Zrotation
  JOINT RightKnee
  {
   OFFSET 0.000000 -40.546152 -0.001885
   CHANNELS 3 Yrotation Xrotation Zrotation
   JOINT RightAnkle
   {
    OFFSET 0.000000 -39.417092 -0.003189
    CHANNELS 3 Yrotation Xrotation Zrotation
    JOINT RightToe
    {
     OFFSET 0.000000 -7.579396 17.243563
     CHANNELS 3 Yrotation Xrotation Zrotation
     End Site
     {
      OFFSET 0.000000 -1.500329 6.694466
     }
    }
   }
  }
 }
 JOINT LeftHip
 {
  OFFSET 7.826875 0.019532 0.001973
  CHANNELS 3 Yrotation Xrotation Zrotation
  JOINT LeftKnee
  {
   OFFSET 0.000000 -40.546152 -0.001885
   CHANNELS 3 Yrotation Xrotation Zrotation
   JOINT LeftAnkle
   {
    OFFSET 0.000000 -39.417092 -0.003189
    CHANNELS 3 Yrotation Xrotation Zrotation
    JOINT LeftToe
    {
     OFFSET 0.000000 -7.579396 17.243563
     CHANNELS 3 Yrotation Xrotation Zrotation
     End Site
     {
      OFFSET 0.000000 -1.500329 6.694466
     }
    }
   }
  }
 }
}
MOTION
Frames: 8
Frame Time: 0.008333
0.000000 87.345680 0.000000 0.000000 -5.767889 0.000000 0.000000 11.653876 0.000000 0.000000 -5.885988 0.000000 0.000000 -0.000000 0.000000 0.000000 -0.000000 0.000000 0.000000 12.528808 0.000000 0.000000 0.711711 0.000000 0.000000 -0.000000 0.000000 0.000000 -0.000000 0.000000 2.309063 -0.000000 0.000000 -2.309063 -0.000000 -0.000000 0.000000 -0.000000 0.000000 0.000000 0.000000 0.000000 -2.309063 0.000000 0.000000 2.309063 -0.000000 0.000000 0.000000 8.520374 0.000000 0.000000 1.905768 0.000000 -0.000000 -4.658254 0.000000 0.000000 -0.000000 0.000000 0.000000 8.520374 0.000000 0.000000 1.905768 0.000000 -0.000000 -4.658254 0.000000 0.000000 -0.000000 0.000000
-2.727007 49.054861 -8.126740 1.632366 -21.000900 -1.575400 11.943238 11.541141 1.787549 6.803583 6.663095 0.410433 8.526445 8.317540 0.638534 6.803583 6.663095 0.410433 -0.917582 21.035847 -9.969741 1.297313 -2.797978 -10.812922 11.610371 -4.859433 -14.090213 18.257505 -28.955871 25.430068 55.345266 -38.628888 58.933702 4.184931 -16.632572 -8.794946 0.976562 -6.740780 7.142573 -26.421281 -35.494263 -44.685420 -51.844899 -9.156404 -49.242780 -6.993502 -6.828766 14.063297 42.202047 -63.954290 -12.014093 120.716647 66.792161 141.926674 1.317109 -24.464412 -7.000098 -0.119739 0.926428 -0.037402 38.031970 -84.726870 46.124971 -140.768547 63.138471 -102.416450 1.119847 -15.065075 -16.327795 -0.221208 -0.847348 -0.098600
-2.728706 49.048399 -8.116465 1.626240 -20.980424 -1.571652 11.950962 11.551037 1.789402 6.801653 6.663503 0.402156 8.523880 8.318208 0.628148 6.801653 6.663503 0.402156 -0.908042 21.064168 -9.978574 1.309690 -2.763552 -10.826101 11.687425 -4.921834 -13.967850 17.542869 -29.571374 25.919889 56.740212 -39.313209 57.847392 4.599840 -16.586262 -8.935149 1.009373 -6.740435 7.148249 -26.355070 -35.467662 -44.761785 -51.953629 -9.188776 -49.252135 -6.955249 -6.768082 14.092436 42.237202 -63.982784 -12.038790 120.771090 66.781873 141.987862 1.302942 -24.461735 -7.009044 -0.103330 0.922229 -0.033891 38.065628 -84.728639 46.093643 -140.778268 63.142569 -102.417633 1.108338 -15.080122 -16.351456 -0.205483 -0.843768 -0.094687
-2.732264 49.040749 -8.107520 1.618837 -20.951580 -1.571966 11.962234 11.550737 1.794424 6.801021 6.665063 0.394411 8.522957 8.320303 0.618474 6.801022 6.665063 0.394411 -0.903616 21.087242 -9.982468 1.315310 -2.735941 -10.832141 11.760811 -4.975409 -13.847749 16.856016 -30.181587 26.410029 58.296239 -39.942141 56.637360 5.016735 -16.496883 -9.118085 1.042856 -6.751943 7.151594 -26.295299 -35.452927 -44.847637 -52.033160 -9.210446 -49.265121 -6.922124 -6.703844 14.114294 42.269585 -64.018831 -12.069105 120.817873 66.774264 142.038149 1.306298 -24.457058 -7.013117 -0.101177 0.922467 -0.039668 38.120432 -84.739363 46.036085 -140.789820 63.151123 -102.419192 1.099812 -15.090827 -16.375143 -0.193260 -0.841696 -0.093534
-2.738244 49.032482 -8.100973 1.611903 -20.917178 -1.578917 11.975253 11.541557 1.804757 6.802605 6.667087 0.387181 8.524820 8.322963 0.609493 6.802605 6.667087 0.387181 -0.904666 21.107117 -9.982181 1.313931 -2.712683 -10.831872 11.824881 -5.023606 -13.728427 16.192898 -30.792064 26.890564 59.929695 -40.510896 55.366879 5.436458 -16.377525 -9.306777 1.073158 -6.770351 7.156520 -26.241374 -35.447460 -44.940311 -52.091817 -9.227227 -49.280213 -6.887835 -6.637825 14.131465 42.287512 -64.061804 -12.093688 120.850579 66.768882 142.073651 1.318915 -24.449121 -7.020240 -0.103119 0.925785 -0.047563 38.168219 -84.757818 45.978041 -140.796901 63.161796 -102.414372 1.097244 -15.094913 -16.399850 -0.183320 -0.841514 -0.094399
-2.746755 49.024204 -8.097689 1.608049 -20.879977 -1.593094 11.987881 11.526077 1.821506 6.807014 6.669120 0.380633 8.530232 8.325616 0.601419 6.807014 6.669120 0.380633 -0.911516 21.125360 -9.980601 1.305851 -2.691643 -10.828630 11.873123 -5.058620 -13.615058 15.549146 -31.415017 27.352641 61.559449 -41.031123 54.110896 5.853062 -16.258461 -9.474085 1.095355 -6.788201 7.165798 -26.188130 -35.453786 -45.038722 -52.136214 -9.236911 -49.294809 -6.854206 -6.575594 14.144701 42.289259 -64.106798 -12.110146 120.858549 66.765877 142.086891 1.334388 -24.442669 -7.034917 -0.104350 0.935358 -0.053000 38.199241 -84.781291 45.926437 -140.796338 63.175185 -102.400110 1.100832 -15.091239 -16.426632 -0.175151 -0.843225 -0.095987
-2.752776 49.015793 -8.099709 1.632955 -20.832511 -1.593009 11.969635 11.504217 1.812828 6.813684 6.670936 0.375546 8.538500 8.327965 0.595208 6.813684 6.670936 0.375546 -0.923352 21.142867 -9.980733 1.292660 -2.671425 -10.826157 11.905191 -5.081678 -13.511994 14.929644 -32.042461 27.785380 63.135353 -41.522406 52.920617 6.256286 -16.157456 -9.618447 1.109545 -6.800877 7.179269 -26.127961 -35.471968 -45.145004 -52.173052 -9.235640 -49.306843 -6.828789 -6.519195 14.151721 42.313106 -64.135685 -12.186519 120.837268 66.764186 142.072973 1.330911 -24.386235 -7.049604 -0.095344 0.895117 -0.052268 38.497315 -84.795168 45.574257 -140.789470 63.192053 -102.380103 1.093668 -15.133383 -16.462427 -0.140310 -0.801518 -0.085287
-2.763531 49.009288 -8.103345 1.631718 -20.801502 -1.603196 11.983509 11.491907 1.828320 6.821666 6.671930 0.372642 8.548448 8.329246 0.591739 6.821666 6.671931 0.372642 -0.939632 21.160987 -9.984295 1.275341 -2.650243 -10.826624 11.924347 -5.095946 -13.421493 14.347258 -32.656532 28.183836 64.641534 -41.991264 51.799685 6.638237 -16.070011 -9.746347 1.116228 -6.806780 7.194909 -26.067200 -35.494623 -45.253771 -52.210333 -9.223942 -49.309467 -6.813551 -6.467320 14.151438 42.311310 -64.159407 -12.211795 120.784966 66.764425 142.029329 1.358708 -24.391493 -7.068472 -0.108222 0.922149 -0.060382 38.565467 -84.807086 45.474880 -140.777671 63.209934 -102.356736 1.104904 -15.124398 -16.488339 -0.133285 -0.803619 -0.086441
